<?xml version="1.0"?>
<svg xmlns:rdf="http://www.w3.org/1999/02/22-rdf-syntax-ns#" xmlns="http://www.w3.org/2000/svg" xmlns:cc="http://creativecommons.org/ns#" xmlns:dc="http://purl.org/dc/elements/1.1/" xmlns:svg="http://www.w3.org/2000/svg" id="svg2" viewBox="0 0 1280 1024" version="1.1">
  <g id="layer1" transform="translate(0 -28.362)">
    <g id="g2955" transform="matrix(.61985 0 0 .61985 664.01 171.16)">
      <path id="path3801" d="m156.12 204.66c-35.035 0.26643-68.695 30.194-74.906 73.219-4.1209 28.543-0.1701 48.24 14.719 74.094 5.7457 10.384 20.364 34.404 32.844 45.875 1.4686 1.35 1.4231 5.0824-1.6875 3.9688-21.751-5.7339-46.267-4.6388-74.781 0.875l5.625 3.375c69.804-10.471 119.6 26.532 148.09 72.125 2.1298-0.15674 4.299-0.25 6.4688-0.25 0.72518 0 1.4365 0.0129 2.1562 0.0312-0.0154-0.50001-0.0312-0.99626-0.0312-1.5 0-2.6838 0.2332-5.3111 0.65625-7.875-10.735-14.91-23.595-29.352-38.406-42.562-19.055-16.996-56.452-77.378-36.656-93.938 19.962-16.698 52.525 1.9472 44 25.562-3.8575 10.686-16.626 12.12-13.156 3.75 4.0728-9.8252-6.7659-19-18.531-9.75-8.5694 6.7372 1.9347 20.693 12.125 23.094 14.615 3.4429 28.229-9.2992 26.969-26.75-1.4335-19.856-33.442-35.466-51.688-21.25-18.245 14.216-8.1778 43.427 1.7812 65.344 4.8256 10.62 0.23316 10.083-6.4062 3.2812-18.087-18.529-25.915-29.126-36.438-49.969-7.6859-15.224-8.3832-30.219-5.1562-38.031 5.1439-12.453 14.544-15.435 21.031-6.6875 6.3107 8.5092 11.196 9.7587 13.906 3.6562 3.167-7.1317-7.9452-18.096-17.094-16.875-13.573 1.8119-21.497 8.6653-23.281 20.219l-1.75 11.188-1.9688-14.344c-2.5433-18.302 3.7014-38.687 14.406-47.125 11.959-9.4261 28.687-4.7128 40.406 11.406 10.008 13.765 18.529 17.293 22.156 9.125 5.2038-11.718-18.839-33.505-37.906-34.344-8.7651-0.3857-14.197 1.0584-20.594 5.5312-13.96 9.7621-13.201 5.3485 1.6875-9.8438 22.48-22.938 42.653-24.837 70.156-6.5 16.867 11.245 27.49 9.1124 25.188-5.0938-0.13797-0.85169-0.30959-1.6716-0.53125-2.4375-1.551-5.3613-5.347-8.835-14.219-13.469-9.4573-4.9395-19.378-7.1996-29.188-7.125zm275.97 273.38c-2.0787 0.0279-4.2314 0.38312-6.4062 1.0625-4.4214 1.7854-8.5532 5.0155-11.5 8.7188-7.8218 9.8298-9.9975 35.678-8.0938 56.969 5.0229 56.176 9.0939 55.065-9.1875 85.344-20.168 33.405-50.116 31.388-96.469 28.562-14.381-0.87663-26.355-3.5424-45.719-3.8438-20.61-1.1975-35.302 2.7482-51.562 6.9062 4.4863-3.3338 8.6622-6.8734 12.562-10.594-1.0749 0.0395-2.1342 0.0625-3.2188 0.0625-5.5644 0-11.009-0.52896-16.281-1.5312-10.309 9.2167-22.97 17.138-38.344 22.656 1.8155 3.3301 3.2259 6.896 4.1875 10.656 6.9123-2.3096 13.464-5.0004 19.625-8.0625 0.0125-0.006 0.0188-0.0251 0.0312-0.0312 23.319-4.3946 48.67-7.0973 73.656-2.4688 23.082 3.5242 41.124 21.371 54.812 39.281 4.0495 5.8627 7.6195 14.117 9.125 20.844 0.80536 3.5983 1.8614 9.8985 1.6562 12.469-0.4804 6.0182-5.1945 7.2855-9.125 9.6562-4.8864 2.9473-10.523 6.2659-13.562 10.406-4.2763 5.825-3.2136 11.756 1.75 15.219 5.7845 3.7116 17.861 3.8251 21.094-0.34375 2.4873-3.208-0.53547-6.7668-10.25-4.5938-10.142 2.2687-8.0701-5.7365-4.125-10.688 2.8944-3.6323 7.5833-6.1437 11-7.5938 9.0687-3.8487 9.0942-6.968 7.8125-12.062-0.81898-3.2554-0.14084-3.3325 2.0312-0.5625 18.223 23.279 33.853 37.186 47.875 40.75 14.022 3.5643 19.424 3.6199 26.969 2.8125 7.5447-0.80742 13.825-5.3075 14.625-14.344 0.92772-10.482-19.141-18.616-29.094-13.906-2.0388 0.96474-2.9652 4.5656-0.625 7.75 3.8854 5.2866 10.724 4.1957 9.9375-0.625-0.77182-4.7311 4.1052-2.9401 8.625 1.25 5.1975 4.8184 3.6006 9.1285-1.8438 12.812-3.663 2.4786-6.9623 2.9276-17.969 2.3125-14.452-2.4052-22.855-7.5024-30.312-13.781-8.3405-7.0224-15.219-15.707-22.219-27.312-5.4136-8.9755-10.259-18.849-19.406-34.625-0.7245-1.2494-4.3742-6.4816-6.8125-8.9375-3.4376-3.4625-7.9223-7.5718-12.406-11.5 0.80344 0.47567 1.6066 0.93813 2.4062 1.4375 62.827 28.927 33.683 27.814 162.41 77.531 126.39 48.817 162.24 20.988 278.28 1.8125 43.346-8.5106 96.005-30.211 109.06-37.75 61.705-35.627 69.701-4.6246 94.531 0.8125 4.0925 0.7628 8.5932 1.1028 12.469 0.6875 8.209-0.8796 16.141-1.4714 24.844-17.5 6.4212-11.825 1.2136-22.264-10.312-26.406-11.133-4.0008-13.613 1.6069-6.125 13.812 10.984 21.442-3.1649 26.372-21.625 22.25-14.921-3.3321-12.598-6.4317-27.75-13.031-31.152-13.569-50.768 7.585-40.969-5.4688 20.327-27.078 53.074-64.125 62.094-100.38 5.2791-21.217 1.3146-55.469-8-69.062-6.9302-10.112-16.574-21.051-34.125-20.969-1.8157 0.009-3.7285 0.14934-5.7188 0.40625-26.792 3.4584-41.815 35.719-20.062 42.688 5.0322 1.612 12.294 3.6717 18.625-0.96875 10.51-7.7039 4.4671-18.69-6.5-16.188-10.763 2.4562-11.639-3.2186-4.0312-11.688 8.7483-9.739 22.367-10.974 33.781-2.9688 30.642 27.252 24.463 79.036 0.90625 115.91-11.22 17.562-29.097 36.884-38.438 50.719-7.0975 10.513-43.127 37.754-48.812 38.219-1.3 0.10631 7.3655-14.79 10.562-24.406 10.011-30.112 6.4772-63.487-14.844-73.031-5.4437-2.437-11.706-3.7981-28.719 2.25 20.538-3.9406 37.337 4.3175 41.375 24.312 5.8672 29.054-7.7618 55.345-23.281 69.688-24.293 22.451-150.12 48.82-214.44 47.719-8.1959-0.14034-13.637-1.1546-4.1562-6.9688 35.273-17.741 51.889-33.738 61.625-59.188 3.856-10.08 4.5106-19.81 5.75-34.469 0.24588-4.1071 3.9857-17.254 8.8125-24.781 23.941-33.049 78.533-34.683 84.719-8.9688 10.057 27.546-11.177 56.922-32.781 43.656-12.415-7.6232-11.355-29.377 1.375-28.688 7.8767 0.42659 9.7063 5.7955 3.875 11.125-3.4124 3.1188-3.7127 4.5683-1.0625 4.6875 5.9115 0.26581 11.418-6.9144 10.125-13.25-1.8923-9.2726-14.075-11.183-23.156-3.625-18.363 15.283-3.1264 42.855 22.062 40 10.299-1.1673 18.19-7.7167 24.781-20.312 10.103-28.743-0.2736-56.904-33.094-59.531-9.1098-0.72931-22.363 1.4092-29.875 5.0312 9.2879-13.816 21.866-26.786 30.438-32.406 10.94-7.1735 14.91-8.5089 24.812-8.4688 12.431 0.0505 21.251 6.2792 22.969 15.75 2.1749 11.992-13.971 21.144-20.75 12.312-4.1532-5.4103 2.7119-8.891 4.0938-5.3438 0.86151 2.2116 4.6189 1.2487 5.2812-1.9375 2.0404-9.8158-7.9957-11.437-12.344-2.2188-4.7794 11.716 5.3238 16.939 14.281 14.812 18.327-5.5168 17.153-27.571-1.9375-36.375-6.2538-2.8839-14.384-3.2136-22.875-1.3438-12.662 3.2343-27.133 16.446-35.938 26-13.634 14.793-27.13 26.173-39.969 39.844-4.4202 4.8629-7.3049 11.527-7.4062 13.781-0.11419 2.5395-4.6027-15.633-12.188-26.531-13.189-18.951-23.952-25.639-37.281-28.969-9.6803-2.526-23.123-0.49479-18.938 9.125 3.2348 7.4343 7.6695 2.5758 23.781 4.8438 10.623 1.4954 18.57 5.5866 26.156 14.812 13.364 16.254 15.434 35.286 13.469 56.438 1.7417 38.711-32.782 64.307-70.469 80.125-57.263 22.764-166.76-28.168-224.78-61.688-17.849-10.312-30.464-17.693-42.688-23.969-9.918-5.092-19.579-9.4573-31.562-14.062-0.93548-0.23563-3.6934-1.8697 0.25-1.3125 113.79 8.2381 112.13-9.2661 151.22-79.625 20.095-30.629 60.373-23.602 60.562 4.5 0.0768 11.361-9.9058 18.559-10.031 9.5-0.14732-10.635-14.98-15.119-22.125-1.9688-5.2042 9.5782 9.9728 18.234 20.281 16.406 14.784-2.6212 21.541-19.343 14.188-35.219-6.843-14.773-17.379-18.533-33.844-17.531-18.643 1.1343-30.847 13.89-42.906 36.062 0.29976-36.876-11.213-66.467-2.7188-94.281 3.4938-11.441 6.0954-15.428 10.531-18.188 6.593-4.1018 14.452-4.0439 17.719 2.9375 2.8407 6.0709 0.71608 9.4823-4.375 6.9688-5.1875-2.5612-10.343 6.4741-5.9688 12.312 2.6349 3.5166 9.1842 4.0229 11.875 3.4375 7.9229-1.7238 9.8333-14.601 5.1562-23.75-3.5897-6.208-9.1701-9.115-15.406-9.0312z" transform="translate(0 28.362)" fill="#520"/>
      <path id="path3839" d="m128.66 656.31c-2.3819 3.9161-4.8694 7.754-7.5312 11.469 13.026 1.9742 23 13.203 23 26.781 0 14.972-12.122 27.094-27.094 27.094-12.822 0-23.556-8.8856-26.375-20.844-3.4919 2.9592-7.1019 5.7755-10.812 8.4688 5.8582 14.794 20.303 25.25 37.188 25.25 22.083 0 39.969-17.886 39.969-39.969 0-18.032-11.945-33.268-28.344-38.25z" fill="#008000" transform="translate(0 28.362)"/>
      <path id="path3841" d="m117.03 673.97c-0.19855 0-0.39654 0.0257-0.59375 0.0312-6.0625 7.7419-12.753 14.963-19.969 21.625 0.000538 0.0106-0.000554 0.0207 0 0.0312 0.56783 10.856 9.5664 19.5 20.562 19.5 11.362 0 20.594-9.232 20.594-20.594s-9.2319-20.594-20.594-20.594zm0 15.469c2.8404 0 5.125 2.2846 5.125 5.125s-2.2846 5.125-5.125 5.125-5.125-2.2846-5.125-5.125 2.2846-5.125 5.125-5.125z" fill="#520" transform="translate(0 28.362)"/>
      <path id="path3649" d="m212.5 484c-25.792 0-48.753 12.136-63.5 31 2.6192 9.864 4.4141 20.053 5.3438 30.5 8.0149-24.454 31.024-42.125 58.156-42.125 3.7884 0 7.4956 0.37212 11.094 1.0312-4.2358-5.918-7.1841-12.846-8.375-20.344-0.9-0.03-1.81-0.06-2.72-0.06zm67.812 37.156c-5.4634 2.159-11.394 3.3438-17.625 3.3438-1.3925 0-2.7938-0.0714-4.1562-0.1875 9.4214 10.763 15.156 24.824 15.156 40.25 0 33.791-27.396 61.188-61.188 61.188-27.605 0-50.943-18.288-58.562-43.406-1.1659 10.409-3.2172 20.541-6.0625 30.344 14.689 19.697 38.173 32.438 64.625 32.438 44.483 0 80.531-36.079 80.531-80.562 0-15.989-4.6863-30.874-12.719-43.406z" fill="#520" transform="translate(0 28.362)"/>
      <g id="g3089" transform="matrix(.81617 0 0 .81617 -766.3 -393.52)">
        <path id="path3664" fill="#008000" d="m857.81 812.96c-27.057 0-48.97 21.913-48.97 48.97s21.913 48.97 48.97 48.97 48.97-21.913 48.97-48.97-21.913-48.97-48.97-48.97zm0 15.766c18.344 0 33.204 14.86 33.204 33.204s-14.86 33.204-33.204 33.204-33.204-14.86-33.204-33.204 14.86-33.204 33.204-33.204z"/>
        <path id="path3666" fill="#520" d="m857.81 836.7c-13.921 0-25.226 11.305-25.226 25.226s11.305 25.226 25.226 25.226 25.226-11.305 25.226-25.226-11.305-25.226-25.226-25.226zm0 18.954c3.4802 0 6.2719 2.7917 6.2719 6.272 0 3.4802-2.7917 6.2719-6.2719 6.2719s-6.272-2.7917-6.272-6.2719 2.7918-6.272 6.272-6.272z"/>
      </g>
      <path id="path3072" fill="#008000" d="m-221.86 877.67c20.038-17.748 21.893-48.358 4.1449-68.395-17.748-20.038-48.358-21.893-68.396-4.145-17.335 15.354-21.063 40.337-10.262 59.769 6.2092-2.2292 12.96-2.3147 19.164-0.27902-0.46562-0.46655-0.90951-0.95217-1.3523-1.4522-12.033-13.585-10.776-34.311 2.8085-46.344 13.585-12.032 34.311-10.776 46.344 2.8086s10.776 34.311-2.8085 46.344c-9.2924 8.2304-21.933 10.268-32.847 6.3707 0.23173 0.24407 0.46987 0.45577 0.69469 0.70968 4.2909 4.8446 6.6672 10.721 7.2436 16.705 12.441 0.80809 25.191-3.1666 35.267-12.091z"/>
      <path id="path3074" fill="#520" d="m-237.43 860.09c10.309-9.1313 11.266-24.919 2.1348-35.228s-24.919-11.266-35.228-2.1349c-10.31 9.1313-11.266 24.919-2.135 35.228 9.1314 10.31 24.919 11.266 35.228 2.1349zm-12.433-14.037c-2.5773 2.2828-6.476 2.0465-8.7588-0.53077-2.2829-2.5774-2.0466-6.4761 0.53071-8.7589 2.5774-2.2829 6.4761-2.0466 8.759 0.53081 2.2828 2.5773 2.0466 6.4761-0.53088 8.7588z"/>
      <g id="g3076" transform="matrix(-1.4421 1.2773 -1.2773 -1.4421 1842.7 923.87)">
        <path id="path3078" fill="#520" d="m816.61 731.28c-7.5605 0-13.693 6.1326-13.693 13.693 0 7.5605 6.1326 13.693 13.693 13.693 7.5605 0 13.693-6.1326 13.693-13.693 0-7.5605-6.1326-13.693-13.693-13.693zm0 3.1903c5.7964 0 10.503 4.7063 10.503 10.503 0 5.7964-4.7063 10.503-10.503 10.503-5.7964 0-10.503-4.7063-10.503-10.503 0-5.7964 4.7063-10.503 10.503-10.503z"/>
        <path id="path3080" d="m237.39 483.9c0 13.25-10.741 23.991-23.991 23.991s-23.991-10.741-23.991-23.991 10.741-23.991 23.991-23.991 23.991 10.741 23.991 23.991z" fill="#008000" transform="matrix(.15558 0 0 .15558 783.41 669.69)"/>
      </g>
      <g id="g2935" fill="#502d16" transform="matrix(1.6041 0 0 1.6041 -918.84 -550.89)">
        <path id="path3789" d="m297.23 726.89c-8.6495 0-15.653 7.0035-15.653 15.653s7.0035 15.69 15.653 15.69 15.653-7.0407 15.653-15.69c0-8.6495-7.0035-15.653-15.653-15.653zm0 3.0188c6.9861 0 12.634 5.648 12.634 12.634 0 6.9861-5.648 12.671-12.634 12.671-6.9861 0-12.634-5.6853-12.634-12.671 0-6.9861 5.648-12.634 12.634-12.634z"/>
        <path id="path3793" d="m36.239 472.53c0 8.3684-6.7839 15.152-15.152 15.152-8.3684 0-15.152-6.7839-15.152-15.152 0-8.3684 6.7839-15.152 15.152-15.152 8.3684 0 15.152 6.7839 15.152 15.152z" transform="matrix(.29815 0 0 .29815 290.94 601.68)"/>
      </g>
      <g id="g2942" fill="#502d16" transform="matrix(1.6041 0 0 1.6041 -1406 -405.42)">
        <path id="path3785" d="m383.49 605.14c-5.9354 0-10.75 4.8144-10.75 10.75 0 5.9354 4.8144 10.75 10.75 10.75 5.9354 0 10.75-4.8144 10.75-10.75 0-5.9354-4.8144-10.75-10.75-10.75zm0 2.5046c4.5505 0 8.2453 3.6948 8.2453 8.2453s-3.6948 8.2453-8.2453 8.2453-8.2453-3.6948-8.2453-8.2453 3.6948-8.2453 8.2453-8.2453z"/>
        <g id="g2939">
          <path id="path3787" d="m237.39 483.9c0 13.25-10.741 23.991-23.991 23.991s-23.991-10.741-23.991-23.991 10.741-23.991 23.991-23.991 23.991 10.741 23.991 23.991z" fill="#502d16" transform="matrix(.068544 0 0 .068544 368.86 582.72)"/>
        </g>
      </g>
      <g id="g2957" fill="#520" transform="matrix(1.6041 0 0 1.6041 -1168.3 -490.91)">
        <path id="path3779" d="m539.35 570.8c-6.9342 0-12.559 5.6245-12.559 12.559 0 6.9342 5.6245 12.559 12.559 12.559 6.9342 0 12.559-5.6245 12.559-12.559 0-6.9342-5.6245-12.559-12.559-12.559zm0 2.926c5.3162 0 9.6326 4.3164 9.6326 9.6326s-4.3164 9.6326-9.6326 9.6326-9.6326-4.3164-9.6326-9.6326 4.3164-9.6326 9.6326-9.6326z"/>
        <path id="path3781" d="m237.39 483.9c0 13.25-10.741 23.991-23.991 23.991s-23.991-10.741-23.991-23.991 10.741-23.991 23.991-23.991 23.991 10.741 23.991 23.991z" transform="matrix(.093122 0 0 .093122 519.47 538.3)"/>
      </g>
      <path id="path3773" fill="#520" d="m-45.82 374.93c-9.9589 0-18.037 8.078-18.037 18.037 0 9.9588 8.078 18.037 18.037 18.037 9.9588 0 18.037-8.078 18.037-18.037 0-9.9588-8.078-18.037-18.037-18.037zm0 4.2024c7.6351 0 13.834 6.1993 13.834 13.834 0 7.6351-6.1993 13.834-13.834 13.834-7.6352 0-13.834-6.1993-13.834-13.834 0-7.6351 6.1993-13.834 13.834-13.834z"/>
      <path id="path3726" fill="#008000" d="m-237.29 535.09c-36.846 0-66.718 29.872-66.718 66.718 0 10.014 2.2043 19.521 6.1577 28.038 2.0207-1.1644 4.3156-1.8533 6.8153-1.8533 7.6044 0 13.81 6.2056 13.81 13.81 0 3.9247-1.6698 7.4159-4.3044 9.924 11.777 10.433 27.259 16.739 44.24 16.739 15.965 0 30.6-5.6632 42.088-15.006-2.5372-6.7282-4.6718-13.66-6.3968-20.745-8.6664 9.968-21.433 16.261-35.691 16.261-26.099 0-47.289-21.07-47.289-47.169s21.189-47.289 47.289-47.289c12.357 0 23.622 4.7882 32.044 12.555 0.929-7.2694 2.2945-14.432 4.0653-21.402-10.41-6.7138-22.805-10.582-36.109-10.582z"/>
      <path id="path3728" fill="#520" d="m-237.29 562.83c-21.494 0-38.919 17.485-38.919 38.979s17.425 38.859 38.919 38.859c14.187 0 26.612-7.5632 33.419-18.892-1.8308-10.288-2.8098-20.871-2.8098-31.685 0-3.9474 0.1678-7.8932 0.4185-11.777-7.1134-9.3675-18.367-15.484-31.028-15.484zm0 17.218c11.975 0 21.642 9.7862 21.642 21.761s-9.6665 21.642-21.642 21.642c-11.975 0-21.642-9.6666-21.642-21.642s9.6666-21.761 21.642-21.761z"/>
      <g id="g2996" fill="#520" transform="matrix(1.6041 0 0 1.6041 -1168.3 -490.91)">
        <path id="path3686" d="m671.14 778.7c-9.9802 0-18.075 8.0952-18.075 18.075 0 9.9802 8.0952 18.075 18.075 18.075 9.9802 0 18.075-8.0952 18.075-18.075 0-9.9802-8.0952-18.075-18.075-18.075zm0 4.2114c7.6515 0 13.864 6.2126 13.864 13.864 0 7.6515-6.2126 13.864-13.864 13.864-7.6515 0-13.864-6.2126-13.864-13.864 0-7.6515 6.2126-13.864 13.864-13.864z"/>
        <path id="path3690" d="m237.39 483.9c0 13.25-10.741 23.991-23.991 23.991s-23.991-10.741-23.991-23.991 10.741-23.991 23.991-23.991 23.991 10.741 23.991 23.991z" transform="matrix(.23852 0 0 .23852 620.24 681.36)"/>
      </g>
      <path id="path3678" fill="#520" d="m-155.98 660.64c-32.018 0-57.99 25.971-57.99 57.99s25.971 57.93 57.99 57.93 57.99-25.912 57.99-57.93c0-32.019-25.971-57.99-57.99-57.99zm0 16.919c22.68 0 41.071 18.391 41.071 41.071s-18.391 41.011-41.071 41.011-41.071-18.332-41.071-41.011c0-22.68 18.391-41.071 41.071-41.071z"/>
      <path id="path3682" fill="#008000" d="m-155.98 684.79c-18.678 0-33.837 15.16-33.837 33.837 0 18.678 15.16 33.778 33.837 33.778 18.678 0 33.837-15.1 33.837-33.778s-15.16-33.837-33.837-33.837zm0 14.946c10.406 0 18.832 8.4855 18.832 18.892s-8.4257 18.832-18.832 18.832-18.832-8.4257-18.832-18.832 8.4257-18.892 18.832-18.892z"/>
      <path id="path3670" fill="#520" d="m0.50642 700.75c-32.241 0-58.352 26.112-58.352 58.352 0 32.241 26.112 58.352 58.352 58.352 32.241 0 58.352-26.112 58.352-58.352 0-32.241-26.112-58.352-58.352-58.352zm0 18.787c21.858 0 39.565 17.707 39.565 39.565s-17.707 39.565-39.565 39.565-39.565-17.707-39.565-39.565 17.707-39.565 39.565-39.565z"/>
      <path id="path3672" fill="#008000" d="m0.50642 729.04c-16.588 0-30.059 13.471-30.059 30.059s13.471 30.059 30.059 30.059 30.058-13.471 30.058-30.059-13.471-30.059-30.058-30.059zm0 22.585c4.1469 0 7.4735 3.3266 7.4735 7.4736s-3.3266 7.4736-7.4735 7.4736c-4.147 0-7.4736-3.3266-7.4736-7.4736s3.3266-7.4736 7.4736-7.4736z"/>
      <path id="path2849" fill="#520" d="m-169.97 327.28c-55.499 0-100.5 44.997-100.5 100.5 0 55.499 44.997 100.5 100.5 100.5 55.499 0 100.5-44.997 100.5-100.5 0-55.499-44.997-100.5-100.5-100.5zm0 29.951c38.956 0 70.544 31.588 70.544 70.544s-31.589 70.485-70.544 70.485c-38.956 0-70.544-31.529-70.544-70.485s31.588-70.544 70.544-70.544z"/>
      <path id="path3625" fill="#008000" d="m-169.97 366.86c-33.62 0-60.919 27.3-60.919 60.919s27.3 60.86 60.919 60.86c33.62 0 60.86-27.24 60.86-60.86s-27.24-60.919-60.86-60.919zm0 28.038c18.144 0 32.821 14.737 32.821 32.881s-14.677 32.821-32.821 32.821-32.881-14.677-32.881-32.821 14.737-32.881 32.881-32.881z"/>
      <path id="path3629" fill="#008000" d="m-26.971 417.14c-11.33 0-22.398 1.089-33.12 3.1685 0.1659 2.472 0.2989 4.959 0.2989 7.4729 0 16.58-3.7217 32.288-10.283 46.392 13.43-4.9981 27.934-7.7718 43.104-7.7718 68.306 0 123.69 55.386 123.69 123.69 0 48.638-28.098 90.693-68.93 110.9 15.677 7.57 27.796 21.256 33.359 37.962 50.787-30.131 84.833-85.523 84.833-148.86 0-95.522-77.431-172.95-172.95-172.95zm-109.58 115.62c-10.541 3.3526-21.767 5.2012-33.419 5.2012-7.2863 0-14.392-0.74245-21.283-2.0924-5.6261 17.055-8.6686 35.283-8.6686 54.224 0 25.491 5.5203 49.718 15.424 71.501 8.5911-4.3099 18.25-6.7555 28.517-6.7555 10.001 0 19.435 2.2939 27.859 6.3968-14.193-20.12-22.538-44.644-22.538-71.142 0-20.698 5.1196-40.189 14.109-57.332zm38.082 158.25c4.0152 8.3514 6.2772 17.674 6.2772 27.56 0 10.342-2.5052 20.118-6.8751 28.756 10.695 4.911 21.984 8.7583 33.718 11.419 0.1976-18.228 7.9331-34.66 20.207-46.332-19.653-2.8959-37.82-10.408-53.327-21.402z"/>
      <path id="path3639" fill="#520" d="m-26.971 485.71c-57.633 0-104.38 46.748-104.38 104.38 0 57.633 46.748 104.32 104.38 104.32 57.633 0 104.32-46.689 104.32-104.32 0-57.633-46.689-104.38-104.32-104.38zm0 49.321c30.418 0 55.06 24.643 55.06 55.06 0 30.418-24.643 55.061-55.06 55.061-30.418 0-55.12-24.643-55.12-55.061s24.703-55.06 55.12-55.06z"/>
      <path id="path2983" fill="#520" d="m-713.88 198.8c-3.7083-0.0432-7.2924 0.84498-10.281 3.0312-11.028 8.0669-6.0996 30.809 5.6562 28.938 2.7195-0.43301 6.2616-3.391 7.4375-7.625 1.9521-7.0293-3.13-9.8345-7.0312-5.5625-3.8287 4.1926-7.0639 1.782-6.625-4.9062 0.50473-7.6913 5.9919-11.955 13.625-10.531 5.1357 0.95796 9.0578 2.522 16.062 12.219 31.019 42.94 13.281 66.978 49 127.19-19.296-16.27-35.283-23.722-53.062-18-15.702 5.0533-24.153 12.375-25.156 28.625-1.078 17.463 11.274 30.59 26 27.656 10.267-2.0456 21.268-15.626 12.938-22.656-11.437-9.6521-23.636-0.0855-19.906 9.875 3.1771 8.4849-8.7219 5.4237-12.781-5.1875-10.041-26.248 24.925-47.444 54.781-26.219 41.21 34.034 61.925 59.036 91.594 78.938 24.343 16.328 70.037 38.371 95.25 51.125 25.655 12.887 54.179 19.789 88.312 21.375 4.8933 0.22738 4.1622 0.78573-4.6875 3.4375-31.101 9.3192-56.589 20.777-82.312 37.094-49.29 31.099-147.51 92.777-213.25 73.25-48.988-14.552-73.177-37.964-119.5-91.375-10.029-11.564-7.127-18.723-4.5625-32.938 2.9378-16.284 6.8105-25.111 17.469-31 10.26-5.6693 20.56-10.375 20.125-14.938-0.7496-7.8619-14.957-4.4007-26.281 6.4688-9.1072 8.7415-15.914 27.174-17.281 46.781-0.66569 9.5434-1.7686 14.491-2.875 13.031-0.98194-1.2953-5.5217-3.6056-10.031-5.1562-37.772-21.468-71.708 15.184-99.281 20.781-23.489 4.7679-44.867 1.73-61.031-21.906-12.705-19.43-30.395-58.698 1.375-69.875l5.9062-0.34375-6 2.375c-10.876 4.2969-9.0405 18.275 2.4062 18.344 8.1728 0.0492 12.649-4.7908 11.875-12.906-0.84206-8.8316-6.6849-14.135-14.656-13.375-1.5273 0.14566-2.9456 0.49453-4.3125 1-9.5685 3.5382-18.567 14.722-16.687 33.438 6.1511 61.26 58.201 88.233 108.94 58 19.893-11.854 38.817-16.002 24.312-5.4688-17.851 15.654-13.03 35.928 4.7188 48.844 9.0613 4.7749 16.414 5.4263 23 1.9062 16.108-8.6091 13.892-31.196-3.25-32.75-8.4776-0.76835-14.92 5.3512-12.25 11.625 1.8244 4.2866 8.04 6.2943 11.438 3.7188 1.5232-1.1546 0.73711-1.8896-2.5625-2.3438-5.6385-0.77602-6.7474-4.7129-2.25-8.1875 7.2687-5.6158 16.777 6.8383 12.531 16.438-7.388 16.705-31.98 7.9828-37.281-12.469-6.8481-17.782 26.189-39.153 53.906-29.343 5.9416 2.4904 13.55 8.7578 15.375 11.093 44.485 56.906 83.678 87.456 129.66 98.438 13.822 3.3012 26.693 4.9321 38.75 5.25-115.26 24.254-226.01-32.99-286.97-42.344-22.369-3.4322-27.824-1.4049-35.812 0.53125-40.666 9.8564-37.798-30.646-57.406-31.938-3.8969-0.25672-4.8433-0.43901-7.4375-0.375-3.3354 0.0823-6.2265 1.6101-9.4688 4.6875-5.3465 5.0746-6.152 13.045-1.8125 17.781 4.1911 4.5747 6.7415 1.7256 6.3125-7.0312 0.4094-23.663 23.286-8.5417 30.719 5.8438 10.594 20.503 29.848 14.442 21.156 20.938-16.289 12.173-40.872 27.85-54.188 47.719-7.7935 11.629-14.558 32.868-13.625 42.812 0.7664 8.1632 2.8403 17.56 13.438 20.094 13.374 3.1972 28.496-13.099 20.094-21.531-1.9438-1.9506-4.8016-4.6212-8.9221-3.0944-6.8407 2.5349-6.7784 10.263-1.0308 10.923 5.6407 0.64756 4.5997 4.2351-1.0784 7.7968-6.5296 4.0958-13.183 2.1457-16.5-4.875-2.2315-4.7237-2.1735-8.4531 0.5-20.125 1.8051-7.8805 5.6949-18.582 8.5938-23.781 9.8673-17.696 33.696-41.088 50.813-49.812 7.24-3.6901 30.076-11.999 31.844-11.594 0.65712 0.15046-3.6394 3.6654-9.5312 7.8125-13.423 9.4478-25.593 28.86-29.281 46.688l-2.4062 11.625 3.7188-9.9688c6.3185-17.049 14.256-29.322 24.125-37.25 17.924-14.398 31.168-17.561 67.719-9.8438 46.986 9.9207 185.22 73.175 312.12 19.781 51.901-17.8 86.666-58.018 124.75-70.094-52.143 40.823-75.105 115.58-126.87 160-13.592 11.663-30.1 16.369-38.813 16.844-8.7128 0.47494-15.98-3.515-18.438-10.906-2.3041-6.929 0.95255-17.26 7.0625-22.469 4.7914-4.0851 7.7521-10.67 5.875-13.031-4.1336-5.1989-15.357 2.5529-19.219 13.281-3.8311 10.644-2.3184 19.407 4.5625 26.562 3.4006 3.5361 5.282 6.6373 4.1562 6.875-2.826 0.59666-15.903-3.3587-25-13.188-9.0968-9.8288-14.421-31.696-4.8125-38.156 9.52-6.4014 9.6094-13.644 3.8438-15.719-13.062-4.7012-25.397 20.085-9.7188 47.562 15.678 27.478 47.272 30.583 82.126 15.063 34.844-15.516 84.073-110.03 133.37-157.16 19.231-22.497 36.893-23.619 24.283-5.1251-67.147 117.93-142.51 210.18-258.97 253.25-31.166 11.526-73.84 2.2889-92.406-13.938-15.114-12.271-10.157-34.525 2.4062-50.25-41.69 43.904 4.0112 76.832 53.812 74.562 12.501-1.9332 7.2763-0.0442-10.375 5.4062-51.114 9.665-139.96-3.0256-143.53-68.344-0.38937-13.32 7.3919-25.36 17.531-27.094 10.186-1.7414 16.176 13.636 6.4375 16.531-5.624 1.6718-7.7627-0.47269-3.125-3.1562 2.8394-1.643 2.9658-2.5114 0.5625-4.1562-4.3581-2.9828-9.0967 2.3305-5.9062 6.625 3.5425 4.7684 13.218 2.7556 15.031-3.125 1.735-5.6275-1.4709-12.306-5.9222-14.234-25.835-11.194-40.44 25.063-23.703 56.609s73.536 51.593 119 46.969c216.05-21.893 308.4-228.93 357.38-293.22 41.879-25.838 90.304-36.57 132.19-29.312 19.466 3.373 20.129 3.3692 19.031-0.65625-1.0803-3.9613-2.4679-4.4635-26.812-8.9375-27.264-5.0106-44.958-6.2563-75.938-5.4062-11.635 0.31928-30.32-1.1027-47.625-3.6562-26.889-3.9678-29.391-4.6429-44.906-12.188-27.037-13.147-41.876-30.42-38.906-45.312 1.9172-9.614 7.967-13.147 18.031-10.438 9.2514 2.4906 12.75 1.1035 13.281-5.3125 0.43721-5.2788-7.7313-10.639-15.938-10.469-13.105 0.27176-24.601 15.134-22.25 28.781 1.6919 9.8206 4.3865 14.654 13.125 23.562 8.8438 9.0157 7.0183 8.8018-4.1562-0.5-32.925-27.408-42.717-60.854-22.938-78.156 9.0917-7.9534 17.907-8.8873 37.094-4 10.567 2.6916 16.018 3.2035 19.688 1.8438 6.5615-2.4314 7.6995-7.7805 2.9062-13.719-6.1006-7.5579-14.249-10.053-29.219-8.9375-24.782 1.8472-42.646 17.27-44.531 38.406-1.0426 11.689-3.3091 7.9269-4.1562-6.875-1.0463-18.281 3.9243-38.513 11.875-48.375 9.8157-12.175 23.932-18.731 43.125-20.094 16.727-1.1876 27.927-5.9991 29.438-12.594 1.2048-5.26-5.6751-14.316-11.938-15.75-2.0662-0.4733-4.374-0.74638-6.7812-0.78125-0.65196-0.01-1.3291-0.0217-2 0-10.064 0.32474-22.091 4.1168-31.969 10.312-29.068 18.233-43.112 48.195-38.812 82.969 2.9501 23.859 11.964 44.604 29.344 65.375-25.582-8.7457-74.605-40.986-104.72-72.531-32.106-33.678-36.191-59.686-51.938-113.84-5.9681-20.526-19.293-44.11-28.031-48.938-4.1425-2.2886-9.1071-3.8819-13.875-3.9375z"/>
      <path id="path2929" fill="#520" d="m-154.53 788.33c-3.3374 0.0227-5.956 1.6458-10.062 6-20.012 21.219-9.2496 57.112 21.156 70.625 15.759 7.0034 27.735 7.9364 45.031 3.5625 25.172-6.3654 45.026-19.119 64.25-41.25 11.443-13.173 6.6162-4.2827-6.9688 12.812-25.93 32.63-63.352 53.938-101.87 58-15.831 1.6695-42.383-1.4912-62.125-7.4062-7.0947-2.1257-14.009-4.5296-18.844-5.6562-2.1113 1.457-4.2828 2.7611-6.5312 3.875 0.12094 0.0892 0.21255 0.15406 0.34375 0.25 5.2876 3.8664 37.145 15.436 50.031 17.312 23.445 3.4147 45.087 1.4839 71.344-6.375 40.888-12.238 70.054-35.923 94.688-76.938 0.8577-1.428-1.1377-3.0603-5.5-4.5l-6.8437-2.25-14.344 15.469c-12.383 13.329-17.011 16.792-33.531 25.062-17.353 8.687-20.39 9.5938-32.125 9.5938-10.215 0-14.027-0.8437-18-3.9688-6.3327-4.9813-6.5246-10.873-0.4375-13.188 5.9215-2.2513 7.4475-4.8564 4.375-7.4062-3.5907-2.98-11.718 1.6301-12.5 7.0938-1.1597 8.106 1.5149 13.786 7.875 16.688l6.1562 2.8125-8.5938-1.1875c-10.946-1.5061-21.662-8.4072-24.781-15.938-3.4846-8.4126 1.946-17.277 13.125-21.406 9.5466-3.5265 12.956-7.8683 8.8438-11.281-5.9-4.8966-22.329 5.4119-25.906 16.25-1.6443 4.9822-1.6926 8.3428-0.15625 12.75 3.3532 9.6189 0.92155 8.472-5.4062-2.5625-9.554-16.66-7.3604-28.584 7.6562-41.438 9.2093-7.8828 9.7062-14.332 1.1562-15.312-0.51256-0.0588-1.0232-0.097-1.5-0.0937z"/>
      <path id="path2925" fill="#520" d="m-484.14 710.88c3.6061 9.4514-1.3065 38.015-10.186 59.228-0.7336 1.7525-1.0963 0.58552-0.84547-2.7204 0.37524-4.9454-0.91899-7.4337-8.8781-17.069-5.1245-6.2038-12.702-15.584-16.839-20.846l-7.5214-9.5667 2.5248-13.591c1.3886-7.4753 3.1105-14.031 3.8265-14.568 0.7159-0.5372 5.0726 3.0676 9.6815 8.0106 7.525 8.0704 10.469 12.685 15.597 24.444 0.86446 1.9823 1.2561-0.46426 0.87028-5.4366-0.59302-7.643-2.1007-10.949-9.7519-21.384l-9.0504-12.343 9.2753 4.9988c11.59 6.2463 18.193 12.709 21.297 20.844l-0.00003 0.00002z"/>
      <path id="path2921" fill="#520" d="m-220.31 723.3c-36.823 10.594-54.44 35.147-58.25 71.219 3.2162-1.6909 6.5482-3.0196 9.9688-4 4.3723-20.45 16.128-44.324 61.781-33.469-12.202-10.384-12.33-29.205-13.5-33.75z"/>
      <path id="path2919" fill="#008000" d="m-768.63 836.79c-1.4632 3.7519-2.163 11.514-1.5552 17.248l1.105 10.427 2.2595-4.5567c1.2427-2.5062 4.7007-5.8886 7.6845-7.5166 7.8401-4.2775 11.775-10.434 11.042-17.274-0.81451-7.6008-2.5912-8.0572-8.022-2.0605-2.3937 2.6432-5.1987 5.2329-6.2333 5.7549-2.9973 1.5122 3.5837-8.2531 6.8033-10.095 5.5569-3.1797 1.0376-5.0019-4.675-1.8851-3.6598 1.9968-6.7157 5.6155-8.4092 9.9582z"/>
      <path id="path2917" fill="#008000" d="m-589.09 810.52c-0.79992 17.504-1.5874 20.416-3.6549 13.516-1.1063-3.6926-4.8801-7.2489-13.335-12.567-6.4856-4.079-13.025-8.7615-14.532-10.406-2.9656-3.2356-4.8707-21.897-2.4669-24.164 1.6394-1.5466 18.771 12.026 21.018 16.652 1.2964 2.6684 1.4738 2.6101 1.7761-0.58422 0.40426-4.2717-5.4838-11.485-14.373-17.608-5.9927-4.1281-6.089-4.3109-2.1516-4.0869 2.267 0.12902 7.8791 2.0351 12.471 4.2358 11.894 5.6998 16.142 15.453 15.248 35.012z"/>
      <path id="path2913" fill="#502d16" d="m-713.94 509.91c6.007 0.83414 18.688 5.1644 16.22 13.315-2.8789 9.5062-13.945 1.3141-19.788-7.6011-46.852-8.217-54.701 47.191-9.4135 73.118-50.924-22.697-48.327-91.575 12.982-78.831z"/>
      <path id="path2909" fill="#520" d="m-701.84 782.03c-6.2655-3.8206-11.101-13.432-13.163-26.167-0.66896-4.13-1.6441-9.5679-2.167-12.084-0.89761-4.3196-0.67909-4.2525 3.9096 1.201 3.0326 3.604 7.9846 6.563 13.168 7.8681 4.5692 1.1505 10.587 3.8846 13.372 6.0757 5.166 4.0636 10.728 17.975 8.1982 20.505-0.76867 0.76867-6.5518-1.3055-12.851-4.6092-10.135-5.3152-11.143-5.5381-8.7508-1.9357 1.4867 2.239 6.4064 6.0294 10.933 8.423l8.2297 4.3519-7.4749-0.008c-4.1112-0.003-10.143-1.6338-13.403-3.622v0.0005z"/>
      <path id="path2907" fill="#520" d="m-706.42 845.26c-2.3292-15.607-10.829-24.147-24.324-24.44l-6.6942-0.14513 8.1116 4.1953c4.4614 2.3074 8.9281 5.7879 9.926 7.7345 1.4651 2.8578-0.28677 2.3844-9.099-2.4587-12.238-6.7259-14.015-5.5745-10.226 6.6256 2.3415 7.5401 7.3469 11.49 18.715 14.767 4.4104 1.2716 9.6653 4.0177 11.678 6.1025 4.2417 4.3944 4.3312 3.8155 1.9139-12.382l-0.00001 0.00011z"/>
      <path id="path2905" fill="#502d16" d="m-373.09 717.49c-9.5956-0.0128-18.492 2.0677-25.031 6.3438-19.961 13.053-18.521 35.514 2.375 37.031 10.143 0.16785 20.6-7.3312 13.875-18.062-5.9394-8.315-16.781-4.4544-13.312 4.9688 1.1259 3.0587 5.3869 3.195 6.0625 0.78125 1.0837-3.8716 9.0963-1.8861 5.1875 4.4688-6.3802 10.373-25.316 4.7263-24.406-7.8125 0.7189-9.9029 9.641-18.121 23.344-20.906 10.916-2.2188 15.451-1.7455 28.406 3.0625 12.508 4.6422 18.111 9.0825 29.688 23.562 7.8459 9.8136 18.487 25.006 23.188 33.859 4.379 8.2478 4.8062 10.197 10.917 19.97 1.9187-1.5709 3.8406-3.143 5.7702-4.7046-11.203-29.656-20.996-45.753-48.031-68.718-9.8598-8.3756-25.694-13.828-38.032-13.845z"/>
      <path id="path2903" fill="#520" d="m-283.97 634.22c4.1261 4.9012 3.2075 10.862 0.2287 14.123-2.3013 2.5192-6.0545 5.2348-12.51 5.3502-14.956 0.26729-32.274-17.396-33.976-38.911-2.9089-36.773 22.183-80.75 63.352-103.16 15.883-8.6445 14.105-4.2769-2.984 7.3313-20.152 13.689-35.578 30.096-43.085 45.825-7.4702 15.652-9.661 25.706-9.718 44.596-0.038 12.568 0.79009 17.069 4.4001 23.913 5.6151 10.646 14.82 17.04 24.532 17.04 15.15-0.32468 10.202-19.495 1.7316-14.517-2.4675 1.4502 0.46874 0.78725 2.7117 2.8696 2.2419 2.0814-1.0311 4.395-3.5955 3.9949-4.5072-0.7033-4.8565-5.2408-1.849-8.7054 2.2613-2.605 8.4594-2.5048 10.762 0.24724z"/>
      <path id="path2901" fill="#008000" d="m-570.87 512.03c-6.1218-2.6649-47.421-10.574-48.626-9.3126-0.24615 0.2577 1.9623 1.5652 4.9076 2.9055 6.96 3.1672 12.628 12.469 18.032 29.589 2.2633 7.1711 5.8901 14.734 8.0594 16.806 4.9092 4.6893 18.774 9.2828 26.719 8.8523l5.9848-0.32421-6.05-12.943c-3.3275-7.1184-8.6897-15.5-11.916-18.626-4.8056-4.6562-5.1562-5.513-1.9396-4.7403 6.7944 1.6323 15.431 11.384 20.972 23.679 2.9393 6.522 5.6284 11.185 5.9757 10.362 1.2451-2.9499-1.9449-23.901-4.5536-29.907-3.2908-7.5765-8.4432-12.369-17.566-16.341z"/>
      <path id="path2899" fill="#008000" d="m-405.17 584.79c-6.2617-4.1706-11.438-12.413-14.102-22.453-1.0515-3.9638 0.14581-3.2527 6.9924 4.1532 7.976 8.6274 16.242 14.33 18.091 12.481 0.4914-0.49137-1.416-2.71-4.2386-4.9302-5.3311-4.1935-15.967-17.329-16.06-19.834-0.094-2.5338 19.084-1.5295 24.526 1.2844 2.892 1.4955 7.5815 6.876 10.421 11.957 7.3164 13.091 9.4958 15.51 16.842 18.699 6.2549 2.7147 5.6862 2.8266-14.733 2.8986-18.944 0.0667-21.942-0.393-27.739-4.2548z"/>
      <path id="path2897" fill="#520" d="m-362.51 428.07c-8.0674-12.526-20.094-18.739-57.333-29.618l-15.365-4.4886 7.0837 4.8649c9.012 6.1892 12.644 12.996 16.046 30.072 4.3709 21.941 8.3555 30.037 18.146 36.868 4.6567 3.2494 12.944 7.0056 18.416 8.347l9.9489 2.4389-0.42799-3.6831c-0.69283-5.9555-10.225-31.067-13.948-36.744-1.8853-2.875-5.2976-6.9255-7.5828-9.001l-4.155-3.7738 6.0516 3.2443c11.872 6.3646 20.416 19.733 27.2 42.562l2.2618 7.6103 0.53276-7.0521c1.1133-14.738-2.1059-34.245-6.8729-41.647h-0.00001z"/>
      <path id="path2895" fill="#520" d="m-209.01 180.24c-1.9501 0.0406-3.9006 0.13281-5.8437 0.28125-26.761 4.0685-50.449 14.279-71.625 31.281-70.466 58.374-59.502 144.93-5.0315 207.06 5.4246 4.2071 10.537 7.6562 11.344 7.6562 3.4586 0 1.0284-8.229-3.5312-12-25.432-23.641-40.746-53.278-43.844-85.375 6.8081-34.001 26.423-69.005 42.25-70.094 7.4726-0.51387 10.63-0.70783 13.219 3.75 1.6747 2.884 1.4509 4.4006-1.2188 7.6562-4.3407 5.2936-2.1876 10.247 3.3438 7.6875 5.4285-2.5122 6.1505-12.063 1.375-18.062-3.8189-4.7973-4.4597-5.0285-12.281-4.125-4.5349 0.52383-8.1627 0.65908-8.0625 0.28125 0.10023-0.37785 4.5057-2.239 9.7812-4.125 17.213-6.1537 32.326-1.4444 33.938 10.562 0.6991 5.2084-0.1 7.6192-4.8125 14.812-8.1635 12.461-6.4532 18.61 3.5313 12.812 3.3078-1.9209 5.3286-5.1776 6.9062-11.125 2.9444-11.1 0.7196-20.114-6.25-25.469-7.5933-5.8334-6.7445-6.8892 2.375-2.9062 18.24 7.9662 24.532 18.465 21.219 35.469-3.1652 16.244-3.0198 19.569 0.8437 20.594 11.626 3.084 16.444-18.213 8.0625-35.625-6.0926-12.656-14.737-19.488-29.781-23.531-54.029-8.1399-68.396 23.536-84.969 65.625-0.48278-21.137 5.5404-41.46 14.906-60.094 26.127-45.49 80.671-72.047 119.12-66.062 26.53 4.129 46.122 22.424 52.579 43.637 5.6578 18.588 3.0398 31.589-20.498 40.309-15.546 5.7596-28.161 27.627-11.438 34.908 18.757 3.7246 31.058-7.4484 40.246-22.936 29.574-55.822-15.406-104.11-75.859-102.85h-0.0001z"/>
      <path id="path2889" fill="#008000" d="m-350.51 276.16c-0.82482-0.70719-4.1477-4.3724-7.3841-8.145-6.835-7.9675-17.526-13.099-28.216-13.544-6.1934-0.25767-41.956 9.0162-42.179 10.938-0.0511 0.43984 2.1925 0.56832 4.9857 0.28552 6.1251-0.62019 14.29 3.9637 26.454 14.851 12.853 11.504 18.303 14.842 25.73 15.757 7.6945 0.94797 23.961-3.565 22.177-6.1526-2.5773-3.7368-23.34-17.395-30.367-19.976-8.7482-3.2134-7.7499-4.713 2.0821-3.1277 4.4576 0.71875 11.357 4.1458 19.729 9.8001 7.081 4.7821 13.314 8.8512 13.851 9.0423 1.1513 0.40989-4.6816-7.859-6.8628-9.7288l0.00008-0.00003z"/>
      <path id="path2955" fill="#502d16" d="m-660.69 559.28c5.0102-0.84406 11.624-4.0038 16.373 3.4787 3.3565 5.2885-9.9846 6.7855-16.942 1.3938-39.517 5.2715-32.344 44.631 10.884 40.874-47.302 12.292-62.538-40.375-10.315-45.747z"/>
      <g id="g2961" fill="#502d16" transform="matrix(1.9267 0 0 1.9267 -1533.5 -630.47)">
        <path id="path2963" d="m539.35 570.8c-6.9342 0-12.559 5.6245-12.559 12.559 0 6.9342 5.6245 12.559 12.559 12.559 6.9342 0 12.559-5.6245 12.559-12.559 0-6.9342-5.6245-12.559-12.559-12.559zm0 2.926c5.3162 0 9.6326 4.3164 9.6326 9.6326s-4.3164 9.6326-9.6326 9.6326-9.6326-4.3164-9.6326-9.6326 4.3164-9.6326 9.6326-9.6326z"/>
        <path id="path2965" d="m237.39 483.9c0 13.25-10.741 23.991-23.991 23.991s-23.991-10.741-23.991-23.991 10.741-23.991 23.991-23.991 23.991 10.741 23.991 23.991z" transform="matrix(.12939 0 0 .12939 511.73 520.75)"/>
      </g>
      <path id="path2967" fill="#008000" d="m-874.21 602.09c-0.66639 0.43099-3.9722 1.8805-7.3463 3.2212-7.1258 2.8314-12.694 9.8324-14.696 18.478-1.1599 5.0086 0.33059 37.706 1.7579 38.564 0.32672 0.19637 0.77363-1.6056 0.99317-4.0045 0.48136-5.2604 5.2397-10.374 15.417-16.568 10.753-6.5447 14.141-9.8605 15.993-15.654 1.9187-6.0023 1.0166-20.979-1.23-20.417-3.2442 0.81057-16.867 13.112-19.925 17.991-3.8064 6.0748-4.792 4.7267-2.0557-2.8116 1.2406-3.4178 4.9218-7.8954 10.527-12.804 4.7405-4.1517 8.8064-7.8553 9.0354-8.2302 0.49105-0.80403-6.7081 1.0966-8.4702 2.2362l-0.00001-0.00009z"/>
      <path id="path2986" fill="#520" d="m-756.72 647.16c3.2426 7.9383-1.1748 31.929-9.1595 49.746-0.65964 1.4719-0.98581 0.49177-0.76024-2.2848 0.33741-4.1537-0.82635-6.2436-7.9831-14.336-4.6079-5.2106-11.422-13.089-15.141-17.509l-6.7632-8.0351 2.2703-11.415c1.2487-6.2785 2.797-11.785 3.4407-12.236 0.64375-0.45119 4.5612 2.5765 8.7055 6.7281 6.7664 6.7784 9.4138 10.654 14.025 20.53 0.77731 1.6649 1.1294-0.38993 0.78254-4.5662-0.53324-6.4194-1.8889-9.1961-8.7688-17.96l-8.138-10.367 8.3402 4.1985c10.422 5.2462 16.359 10.674 19.15 17.507l-0.00003 0.00002z"/>
      <path id="path3006" fill="#520" d="m-338.24 812.11c-7.6861 3.4342-31.647 0.67554-49.684-5.7201-1.4901-0.52836-0.53728-0.8838 2.2212-0.82852 4.1265 0.0826 6.1341-1.108 13.771-8.1676 4.9174-4.5453 12.361-11.276 16.541-14.957l7.6006-6.6928 11.41 1.4682c6.2755 0.80752 11.802 1.9345 12.282 2.5045 0.47952 0.56998-2.3138 4.3569-6.2075 8.4155-6.3571 6.6264-10.055 9.2865-19.588 14.092-1.607 0.81013 0.44394 1.0222 4.5576 0.47126 6.3231-0.84681 9.0002-2.2527 17.316-9.0935l9.8365-8.0918-3.7238 7.9384c-4.6531 9.9195-9.7168 15.705-16.333 18.661l-0.00001-0.00003z"/>
      <path id="path3008" d="m-343.58 685.71c5.7285-4.3331 26.177-6.649 42.4-4.8021 1.3403 0.15255 0.61662 0.63129-1.687 1.116-3.4461 0.72509-4.8858 2.1009-9.8764 9.4382-3.2132 4.7242-8.1056 11.751-10.873 15.615l-5.0306 7.0253-9.767 0.97431c-5.3718 0.53587-10.183 0.66214-10.691 0.28057-0.50823-0.38154 1.0853-4.0667 3.5412-8.1893 4.0097-6.731 6.5717-9.6535 13.572-15.482 1.18-0.98251-0.56563-0.76426-3.8792 0.48491-5.0932 1.9202-7.0481 3.6038-12.645 10.89l-6.6201 8.6183 1.5684-7.3151c1.9598-9.1406 5.0562-14.924 9.9873-18.654l0.00002 0.00003z" fill="#008000"/>
      <path id="path3010" fill="#520" d="m-382.16 688.17c0.95424-10.226 1.4962-11.909 2.515-7.8119 0.54526 2.1927 2.656 4.3796 7.4586 7.7277 3.684 2.5682 7.3827 5.4913 8.2192 6.4957 1.6465 1.9767 2.2439 12.955 0.77358 14.216-1.0028 0.86006-10.656-7.5621-11.843-10.333-0.68492-1.5983-0.79041-1.5691-1.0561 0.29277-0.35526 2.4898 2.8918 6.8765 7.9263 10.708 3.394 2.5833 3.4453 2.693 1.1463 2.4525-1.3237-0.13844-4.5566-1.4103-7.1843-2.8262-6.8057-3.6673-9.0217-9.4954-7.9555-20.923z"/>
      <path id="path3036" fill="#520" d="m-863.66 448.58c-5.0425-10.43-13.396-17.185-39.821-32.202l-10.903-6.1964 4.839 4.8295c6.1565 6.1439 8.3484 11.663 9.6834 24.384 1.7154 16.344 4.0779 22.843 10.759 29.593 3.1776 3.211 8.9687 7.4952 12.869 9.5205l7.0912 3.6823-0.065-2.6834c-0.1057-4.3392-5.3721-23.938-7.7062-28.678-1.1819-2.4004-3.3984-5.9313-4.9256-7.8465l-2.7767-3.4821 4.1952 3.4823c8.2302 6.8316 13.563 17.95 16.979 35.396l1.1388 5.8161 0.86158-4.8714c1.8005-10.18 0.76168-24.58-2.2179-30.743z"/>
      <path id="path3046" fill="#520" d="m-612.47 334.15c5.5957-2.7818 23.58-1.7189 37.291 2.204 1.1328 0.32406 0.43624 0.61811-1.6237 0.6854-3.0815 0.10074-4.5313 1.0396-9.9451 6.4407-3.4858 3.4776-8.7679 8.6336-11.739 11.457l-5.4012 5.1345-8.5702-0.61793c-4.7136-0.33987-8.8816-0.93984-9.2622-1.3333-0.38055-0.39346 1.5512-3.24 4.2929-6.3259 4.4763-5.0381 7.1278-7.1053 14.046-10.951 1.1662-0.64823-0.37214-0.72179-3.4186-0.16358-4.6828 0.85811-6.6233 1.9787-12.552 7.248l-7.0129 6.233 2.4594-5.8844c3.0731-7.3529 6.6182-11.733 11.435-14.127l-0.00002 0.00003z"/>
      <path id="path3048" fill="#008000" d="m-594.08 414.01c-0.53633 0.58496-3.3704 2.8205-6.298 4.9678-6.1827 4.5351-9.8078 12.713-9.5676 21.584 0.13923 5.1393 9.818 36.407 11.415 36.877 0.36564 0.1078 0.34423-1.7487-0.0476-4.1256-0.85926-5.212 2.4575-11.359 10.746-19.917 8.7579-9.0424 11.201-13.105 11.534-19.178 0.34489-6.292-4.3007-20.558-6.3333-19.449-2.9354 1.6016-13.021 16.938-14.75 22.43-2.1534 6.8378-3.4468 5.7814-2.6976-2.2032 0.33964-3.6201 2.7742-8.8805 6.962-15.043 3.5418-5.2119 6.5437-9.8203 6.6709-10.241 0.27267-0.9018-6.2156 2.751-7.6338 4.2978l-0.00003-0.0001z"/>
      <path id="path3050" fill="#520" d="m-632.71 377.16c-0.71279 0.20642-3.982 0.59216-7.2649 0.85751-6.9332 0.56038-14.207 5.432-19.198 12.857-2.8914 4.3019-14.346 35.007-13.51 36.215 0.19143 0.27633 1.256-1.2629 2.3657-3.4205 2.4335-4.7314 8.3126-8.0898 19.048-10.881 11.343-2.9492 15.403-5.0395 19.166-9.8682 3.8982-5.0025 8.965-19.13 6.9076-19.26-2.9711-0.18793-18.897 7.2613-23.292 10.895-5.4721 4.5236-5.7567 2.9903-0.59357-3.1979 2.3409-2.8057 7.0914-5.8866 13.585-8.8104 5.4916-2.4728 10.257-4.7258 10.59-5.0068 0.71381-0.6025-5.9186-0.92509-7.8035-0.37961l0.00003-0.00008z"/>
      <path id="path3775" d="m237.39 483.9c0 13.25-10.741 23.991-23.991 23.991s-23.991-10.741-23.991-23.991 10.741-23.991 23.991-23.991 23.991 10.741 23.991 23.991z" fill="#520" transform="matrix(.13374 0 0 .13374 -74.364 328.25)"/>
      <path id="path3813" fill="#008000" d="m212.5 540.18c-29.13 0-52.75 23.62-52.75 52.75s23.62 52.75 52.75 52.75 52.75-23.62 52.75-52.75-23.62-52.75-52.75-52.75zm0 23.094c16.386 0 29.656 13.27 29.656 29.656s-13.27 29.656-29.656 29.656-29.688-13.27-29.688-29.656 13.301-29.656 29.688-29.656z"/>
      <path id="path3948" fill="#520" d="m475.02 741.88c7.2671-7.9612 15.727-10.223 40.33-10.785l10.151-0.23154-5.2125 2.2618c-6.6314 2.8775-10.126 7.3617-15.436 19.81-6.8238 15.995-10.777 21.399-18.001 24.608-3.4364 1.5264-9.1658 2.6807-12.732 2.5649l-6.484-0.21045 0.96051-2.7494c1.5536-4.4454 12.104-21.8 15.438-25.395 1.6883-1.8201 4.5244-4.2256 6.3024-5.3454l3.2327-2.0361-4.2794 1.2294c-8.3952 2.4118-16.111 10.922-24.564 27.095l-2.8181 5.3914 1.021-5.5484c2.1336-11.595 7.7971-25.957 12.091-30.661z"/>
      <path id="path3956" fill="#008000" d="m222.71 708.48c-30.11 0-54.523 24.413-54.523 54.523s24.413 54.523 54.523 54.523 54.523-24.413 54.523-54.523-24.413-54.523-54.523-54.523zm0 16.25c21.135 0 38.273 17.138 38.273 38.273s-17.138 38.241-38.273 38.241-38.273-17.105-38.273-38.241c0-21.135 17.138-38.273 38.273-38.273z"/>
      <path id="path3958" fill="#520" d="m222.71 729.95c-18.24 0-33.051 14.811-33.051 33.051s14.811 33.019 33.051 33.019 33.019-14.779 33.019-33.019-14.779-33.051-33.019-33.051zm0 15.212c9.8437 0 17.807 7.9954 17.807 17.839 0 9.8437-7.9629 17.807-17.807 17.807-9.8437 0-17.839-7.963-17.839-17.807 0-9.8437 7.9954-17.839 17.839-17.839z"/>
      <path id="path3960" d="m452.06 812.19c-12.572 4.5338-17.763 12.451-24.749 37.744l-2.8825 10.436 4.3689-4.5511c5.5576-5.7902 12.487-7.7228 30.613-8.5379 23.289-1.0473 31.575-3.1093 37.73-9.3892 2.9279-2.987 5.9343-8.4914 6.6813-12.232l1.358-6.8007-3.9492-0.0402c-6.3858-0.0642-32.451 4.3341-38.141 6.436-2.881 1.0643-6.8417 3.098-8.8014 4.5191l-3.563 2.584 2.7407-3.973c5.3768-7.7938 18.803-12.586 42.744-15.255l7.9811-0.89003-7.7377-1.032c-16.17-2.1566-36.964-1.6965-44.392 0.98247z" fill="#520"/>
      <g id="g3962" fill="#520" transform="matrix(1.2191 0 0 1.2191 528.38 -135.98)">
        <path id="path3964" d="m297.23 726.89c-8.6495 0-15.653 7.0035-15.653 15.653s7.0035 15.69 15.653 15.69 15.653-7.0407 15.653-15.69c0-8.6495-7.0035-15.653-15.653-15.653zm0 3.0188c6.9861 0 12.634 5.648 12.634 12.634 0 6.9861-5.648 12.671-12.634 12.671-6.9861 0-12.634-5.6853-12.634-12.671 0-6.9861 5.648-12.634 12.634-12.634z"/>
        <path id="path3966" d="m36.239 472.53c0 8.3684-6.7839 15.152-15.152 15.152-8.3684 0-15.152-6.7839-15.152-15.152 0-8.3684 6.7839-15.152 15.152-15.152 8.3684 0 15.152 6.7839 15.152 15.152z" transform="matrix(.35483 0 0 .35483 289.74 574.89)"/>
      </g>
      <path id="path3982" d="m701.6 809.89c-4.8663 4.4113-10.744 22.768-12.189 38.063 1.1252-2.2818 7.1586-6.6634 11.402-8.5457 8.2904-2.7595 11.051-3.8542 17.82-7.2717 2.0472-0.91822 5.3598-4.1698 5.9716-6.1682 0.56075-1.8315 1.6822-5.4946 1.6822-5.4946 1.4808-4.8368 2.498-9.2388 2.2604-9.7822-7.62-0.14315-14.53 4.3305-20.2 9.0134-0.0639-5.1289 4.0816-8.1756 9.343-10.912l8.779-4.3811-6.688-0.009c-8.3569-0.0109-13.994 1.6904-18.183 5.4877l0.00003 0.00001-0.00003 0.00028z" fill="#520"/>
      <path id="path3984" d="m781.49 807.29c10.299 5.9631 14.641 14.405 20.702 40.244l2.5008 10.661-3.623-5.0155c-4.6092-6.3808-10.277-9.1076-25.041-12.046-18.97-3.7755-25.743-6.7894-30.846-13.725-2.427-3.299-4.9557-9.0969-5.6191-12.884l-1.2062-6.8863 3.2135 0.42485c5.1961 0.68753 26.475 8.104 31.136 10.852 2.3605 1.3917 5.614 3.8691 7.23 5.5053l2.9382 2.975-2.2895-4.252c-4.4915-8.3415-15.489-14.66-35.013-20.117l-6.5086-1.8192 6.282-0.11057c13.128-0.23106 30.057 2.67 36.143 6.1936z" fill="#008000"/>
      <g id="g3994" fill="#520" transform="matrix(1.6041 0 0 1.6041 -198.27 -164.61)">
        <path id="path3996" d="m539.35 570.8c-6.9342 0-12.559 5.6245-12.559 12.559 0 6.9342 5.6245 12.559 12.559 12.559 6.9342 0 12.559-5.6245 12.559-12.559 0-6.9342-5.6245-12.559-12.559-12.559zm0 2.926c5.3162 0 9.6326 4.3164 9.6326 9.6326s-4.3164 9.6326-9.6326 9.6326-9.6326-4.3164-9.6326-9.6326 4.3164-9.6326 9.6326-9.6326z"/>
        <path id="path3998" d="m237.39 483.9c0 13.25-10.741 23.991-23.991 23.991s-23.991-10.741-23.991-23.991 10.741-23.991 23.991-23.991 23.991 10.741 23.991 23.991z" transform="matrix(.093122 0 0 .093122 519.47 538.3)"/>
      </g>
      <g id="g4012" transform="matrix(1.8637 0 0 1.8637 -502.96 -996.95)">
        <path id="path4014" fill="#008000" d="m297.23 726.89c-8.6495 0-15.653 7.0035-15.653 15.653s7.0035 15.69 15.653 15.69 15.653-7.0407 15.653-15.69c0-8.6495-7.0035-15.653-15.653-15.653zm0 3.0188c6.9861 0 12.634 5.648 12.634 12.634 0 6.9861-5.648 12.671-12.634 12.671-6.9861 0-12.634-5.6853-12.634-12.671 0-6.9861 5.648-12.634 12.634-12.634z"/>
        <path id="path4016" d="m36.239 472.53c0 8.3684-6.7839 15.152-15.152 15.152-8.3684 0-15.152-6.7839-15.152-15.152 0-8.3684 6.7839-15.152 15.152-15.152 8.3684 0 15.152 6.7839 15.152 15.152z" fill="#520" transform="matrix(.29815 0 0 .29815 290.94 601.68)"/>
      </g>
      <g id="g4018" transform="matrix(-2.2567 1.9988 -1.9988 -2.2567 3594.5 553.75)">
        <path id="path4020" fill="#520" d="m816.61 731.28c-7.5605 0-13.693 6.1326-13.693 13.693 0 7.5605 6.1326 13.693 13.693 13.693 7.5605 0 13.693-6.1326 13.693-13.693 0-7.5605-6.1326-13.693-13.693-13.693zm0 3.1903c5.7964 0 10.503 4.7063 10.503 10.503 0 5.7964-4.7063 10.503-10.503 10.503-5.7964 0-10.503-4.7063-10.503-10.503 0-5.7964 4.7063-10.503 10.503-10.503z"/>
        <path id="path4022" d="m237.39 483.9c0 13.25-10.741 23.991-23.991 23.991s-23.991-10.741-23.991-23.991 10.741-23.991 23.991-23.991 23.991 10.741 23.991 23.991z" fill="#008000" transform="matrix(.24561 0 0 .24561 764.2 626.12)"/>
      </g>
      <path id="path4034" d="m200.44 428.77c6.9424-1.8421 26.746 3.7548 41.063 11.606 1.1828 0.64856 0.33175 0.81774-1.9839 0.39432-3.4641-0.63336-5.3175 0.095-12.714 4.9972-4.7624 3.1563-11.951 7.8083-15.974 10.337l-7.3156 4.5982-9.409-2.7954c-5.175-1.5375-9.6758-3.2418-10.002-3.7874-0.32599-0.54553 2.544-3.3532 6.3777-6.2394 6.2593-4.7122 9.737-6.4474 18.422-9.1924 1.4641-0.46276-0.23419-0.92152-3.774-1.0196-5.441-0.15072-7.8878 0.66757-15.826 5.2927l-9.3899 5.471 4.2208-6.177c5.2741-7.7185 10.329-11.899 16.305-13.485l0.00001 0.00005z" fill="#008000"/>
      <path id="path4036" d="m152.08 474.86c-4.2173 3.6938-8.812 18.526-9.5273 30.754-0.0591 1.0102 0.41906 0.53502 1.1146-1.1079 1.0406-2.4576 2.3286-3.3502 8.8358-6.1222 4.1897-1.7848 10.437-4.5231 13.882-6.0858l6.2645-2.8407 2.0898-7.1009c1.1494-3.9055 1.8975-7.4474 1.6625-7.8711-0.235-0.42361-3.3804 0.29352-6.9897 1.5936-5.893 2.1226-8.5622 3.6514-14.14 8.0983-0.94028 0.7496-0.5317-0.51395 0.90788-2.808 2.2128-3.5261 3.8149-4.761 10.363-7.9877l7.7454-3.8168-6.0288 0.24414c-7.5333 0.30508-12.55 1.8709-16.18 5.0506l0.00003 0.00003z" fill="#520"/>
      <path id="path4050" d="m595.94 691.65c-6.5742 1.1652-45.357 17.414-45.664 19.132-0.0626 0.35083 2.5005 0.21887 5.6956-0.29323 7.5504-1.2101 17.417 3.4048 31.387 14.681 5.8515 4.7231 13.056 9.0185 16.009 9.5453 6.6835 1.1921 20.775-2.6482 27.157-7.4008l4.8071-3.5798-12.198-7.4375c-6.709-4.0907-15.812-8.1087-20.229-8.929-6.5788-1.2218-7.3448-1.7419-4.2374-2.8768 6.5636-2.3974 19.152 0.95092 30.569 8.1306 6.0557 3.8085 10.875 6.2064 10.709 5.3286-0.59396-3.1463-14.838-18.838-20.333-22.4-6.9317-4.4927-13.875-5.6366-23.672-3.9002z" fill="#008000"/>
      <path id="path4063" fill="#520" d="m353.48 634.67c-11.703-2.1593-20.489 1.4356-41.886 17.138l-8.8284 6.4788 6.0129-1.4582c7.6497-1.8552 13.73-0.24464 26.861 7.1148 16.872 9.4563 23.979 11.567 32.365 9.6104 3.9884-0.93052 9.6779-3.6946 12.643-6.1424l5.3915-4.4506-2.7187-1.7652c-4.3964-2.8538-25.39-11.043-30.719-11.983-2.6986-0.47598-6.7814-0.70697-9.0729-0.5133l-4.1665 0.35211 4.5032-1.7443c8.8343-3.422 21.3-1.0789 39.686 7.4596l6.1294 2.8464-4.7032-4.166c-9.8288-8.7062-24.582-17.501-31.497-18.777z"/>
      <g id="g4067" fill="#520" transform="matrix(1.6041 0 0 1.6041 -490.48 -222.23)">
        <path id="path4069" d="m539.35 570.8c-6.9342 0-12.559 5.6245-12.559 12.559 0 6.9342 5.6245 12.559 12.559 12.559 6.9342 0 12.559-5.6245 12.559-12.559 0-6.9342-5.6245-12.559-12.559-12.559zm0 2.926c5.3162 0 9.6326 4.3164 9.6326 9.6326s-4.3164 9.6326-9.6326 9.6326-9.6326-4.3164-9.6326-9.6326 4.3164-9.6326 9.6326-9.6326z"/>
        <path id="path4071" d="m237.39 483.9c0 13.25-10.741 23.991-23.991 23.991s-23.991-10.741-23.991-23.991 10.741-23.991 23.991-23.991 23.991 10.741 23.991 23.991z" transform="matrix(.16714 0 0 .16714 503.68 502.48)"/>
      </g>
      <path id="path4083" fill="#008000" d="m442.24 671.34c9.2878 5.3778 13.204 12.991 18.67 36.293l2.2554 9.6147-3.2674-4.5232c-4.1568-5.7545-9.2686-8.2136-22.583-10.863-17.107-3.4049-23.216-6.123-27.818-12.378-2.1888-2.9751-4.4692-8.204-5.0676-11.62l-1.0878-6.2104 2.8981 0.38314c4.686 0.62005 23.876 7.3086 28.08 9.787 2.1288 1.2551 5.0629 3.4893 6.5203 4.9649l2.6498 2.683-2.0648-3.8346c-4.0506-7.5227-13.969-13.221-31.576-18.143l-5.8698-1.6406 5.6653-0.0997c11.84-0.20838 27.107 2.4079 32.595 5.5856z"/>
    </g>
  </g>
  <metadata>
    <rdf:RDF>
      <cc:Work>
        <dc:format>image/svg+xml</dc:format>
        <dc:type rdf:resource="http://purl.org/dc/dcmitype/StillImage"/>
        <cc:license rdf:resource="http://creativecommons.org/licenses/publicdomain/"/>
        <dc:publisher>
          <cc:Agent rdf:about="http://openclipart.org/">
            <dc:title>Openclipart</dc:title>
          </cc:Agent>
        </dc:publisher>
        <dc:title>walltattoo</dc:title>
        <dc:date>2010-09-19T20:59:01</dc:date>
        <dc:description>A walltattoo with circles and branches</dc:description>
        <dc:source>http://openclipart.org/detail/85633/walltattoo-by-aguest</dc:source>
        <dc:creator>
          <cc:Agent>
            <dc:title>aguest</dc:title>
          </cc:Agent>
        </dc:creator>
        <dc:subject>
          <rdf:Bag>
            <rdf:li>art</rdf:li>
            <rdf:li>circles</rdf:li>
            <rdf:li>clip art</rdf:li>
            <rdf:li>clipart</rdf:li>
            <rdf:li>decoration</rdf:li>
            <rdf:li>flourish</rdf:li>
            <rdf:li>tattoo</rdf:li>
            <rdf:li>wall</rdf:li>
          </rdf:Bag>
        </dc:subject>
      </cc:Work>
      <cc:License rdf:about="http://creativecommons.org/licenses/publicdomain/">
        <cc:permits rdf:resource="http://creativecommons.org/ns#Reproduction"/>
        <cc:permits rdf:resource="http://creativecommons.org/ns#Distribution"/>
        <cc:permits rdf:resource="http://creativecommons.org/ns#DerivativeWorks"/>
      </cc:License>
    </rdf:RDF>
  </metadata>
</svg>
